<svg xmlns="http://www.w3.org/2000/svg" xmlns:xlink="http://www.w3.org/1999/xlink" width="319" zoomAndPan="magnify" viewBox="0 0 239.25 237" height="316" preserveAspectRatio="xMidYMid meet" version="1.0"><path fill="#0f2f6d" d="M 54.65625 13.371094 C 32.679688 17.300781 14.996094 33.566406 9.421875 54.949219 C 7.410156 62.671875 7.273438 67.195312 7.503906 127.09375 C 7.640625 182.105469 7.6875 183.386719 8.601562 187.632812 C 13.671875 210.523438 29.9375 226.835938 53.054688 232.226562 C 56.070312 232.914062 59.910156 233.050781 84.628906 233.1875 C 110.214844 233.371094 112.863281 233.324219 113.550781 232.640625 C 114.234375 231.953125 114.28125 223.136719 114.28125 123.164062 C 114.28125 49.054688 114.144531 14.148438 113.824219 13.507812 C 113.367188 12.6875 112.589844 12.640625 85.816406 12.6875 C 64.066406 12.734375 57.535156 12.871094 54.65625 13.371094 Z M 96.003906 123.027344 L 96.003906 215.597656 L 77.410156 215.367188 C 60.273438 215.1875 58.449219 215.09375 55.019531 214.226562 C 40.308594 210.433594 29.390625 199.101562 26.328125 184.34375 C 25.324219 179.730469 25.324219 66.054688 26.28125 61.53125 C 29.023438 48.691406 37.933594 38.046875 49.949219 33.246094 C 55.980469 30.828125 58.769531 30.550781 78.324219 30.507812 L 96.003906 30.460938 Z M 96.003906 123.027344 " fill-opacity="1" fill-rule="nonzero"/><path fill="#0f2f6d" d="M 58.585938 58.378906 C 55.707031 58.925781 51.320312 61.117188 48.988281 63.175781 C 44.191406 67.332031 41.816406 73.226562 42.183594 80.171875 C 42.363281 83.78125 42.59375 84.742188 44.054688 87.664062 C 46.203125 92.097656 49.445312 95.339844 53.878906 97.535156 C 56.941406 99.042969 57.714844 99.222656 61.691406 99.363281 C 65.300781 99.5 66.582031 99.363281 69.003906 98.539062 C 78.917969 95.203125 84.902344 85.5625 83.210938 75.695312 C 81.246094 63.953125 70.097656 56.09375 58.585938 58.378906 Z M 58.585938 58.378906 " fill-opacity="1" fill-rule="nonzero"/><path fill="#0f2f6d" d="M 136.53125 12.960938 C 136.347656 13.097656 136.210938 62.625 136.210938 123.027344 C 136.210938 222.679688 136.257812 232.777344 136.945312 233.050781 C 138.175781 233.507812 173.632812 233.324219 178.019531 232.867188 C 196.570312 230.765625 212.925781 219.480469 221.835938 202.710938 C 222.976562 200.566406 224.484375 196.957031 225.261719 194.714844 C 228.140625 186.125 228.050781 188.410156 228.050781 122.753906 C 228.050781 70.347656 227.957031 62.535156 227.320312 59.199219 C 222.796875 35.394531 204.65625 17.4375 180.804688 13.328125 C 177.609375 12.777344 172.671875 12.640625 156.773438 12.640625 C 145.808594 12.640625 136.667969 12.777344 136.53125 12.960938 Z M 185.328125 112.472656 C 192.457031 114.347656 198.304688 119.785156 200.679688 126.730469 C 202.1875 131.023438 202.144531 137.328125 200.636719 141.257812 C 197.847656 148.476562 192.367188 153.550781 185.328125 155.421875 C 173.90625 158.394531 161.753906 151.492188 158.417969 140.164062 C 157.414062 136.691406 157.457031 130.84375 158.601562 127.277344 C 162.027344 116.082031 173.90625 109.503906 185.328125 112.472656 Z M 185.328125 112.472656 " fill-opacity="1" fill-rule="nonzero"/></svg>